# Alias OBJ Model File
# Exported from SketchUp, (c) 2000-2012 Trimble Navigation Limited
# File units = meters

mtllib cohete3.mtl

g Mesh1 Group1 Model

usemtl FrontColor
v -2.70717e-16 3.52 9.02389e-17
vt -3.04875 117.222
vn -3.00851e-17 1 6.719e-16
v -0.363307 2.72 0.209755
vt -5.20455 81.7239
vn -0.76697 0.464409 0.44281
v -0.296639 2.72 0.296639
vt -0.892959 81.7239
vn -0.626228 0.464409 0.626228
f 1/1/1 2/2/2 3/3/3

vt -8.93849 116.494
vn -3.00851e-17 1 6.46829e-16
v -0.405216 2.72 0.108577
vt -11.0943 80.996
vn -0.855444 0.464409 0.229215
vt -6.7827 80.996
f 1/4/4 4/5/5 2/6/2

vt -14.2191 115.088
vn -1.2034e-16 1 6.05462e-16
v -0.419511 2.72 9.02389e-17
vt -16.3749 79.5896
vn -0.885621 0.464409 -2.79436e-17
vt -12.0633 79.5896
f 1/7/6 5/8/7 4/9/5

vt -18.5307 113.099
vn -2.00567e-17 1 6.41815e-16
v -0.405216 2.72 -0.108577
vt -20.6865 77.6007
vn -0.855444 0.464409 -0.229215
vt -16.3749 77.6007
f 1/10/8 6/11/9 5/12/7

vt -21.5794 110.663
vn -4.01134e-17 1 6.66886e-16
v -0.363307 2.72 -0.209755
vt -23.7352 75.1649
vn -0.76697 0.464409 -0.44281
vt -19.4236 75.1649
f 1/13/10 7/14/11 6/15/9

vt -23.1576 107.946
vn 1.00284e-17 1 6.41815e-16
v -0.296639 2.72 -0.296639
vt -25.3134 72.448
vn -0.626228 0.464409 -0.626228
vt -21.0018 72.448
f 1/16/12 8/17/13 7/18/11

vt -23.1576 105.134
vn -1.00284e-17 1 6.21758e-16
v -0.209755 2.72 -0.363307
vt -25.3134 69.6354
vn -0.44281 0.464409 -0.76697
vt -21.0018 69.6354
f 1/19/14 9/20/15 8/21/13

vt -21.5794 102.417
vn -4.01134e-17 1 7.3207e-16
v -0.108577 2.72 -0.405216
vt -23.7352 66.9185
vn -0.229215 0.464409 -0.855444
vt -19.4236 66.9185
f 1/22/16 10/23/17 9/24/15

vt -18.5307 99.9811
vn -1.2034e-16 1 5.91673e-16
v 9.02389e-17 2.72 -0.419511
vt -20.6865 64.4826
vn 5.72844e-16 0.464409 -0.885621
vt -16.3749 64.4826
f 1/25/18 11/26/19 10/27/17

vt -14.2191 97.9922
vn -2.7578e-17 1 5.61588e-16
v 0.108577 2.72 -0.405216
vt -16.3749 62.4938
vn 0.229215 0.464409 -0.855444
vt -12.0633 62.4938
f 1/28/20 12/29/21 11/30/19

vt -8.93849 96.5859
vn -8.52411e-17 1 4.81361e-16
v 0.209755 2.72 -0.363307
vt -11.0943 61.0874
vn 0.44281 0.464409 -0.76697
vt -6.7827 61.0874
f 1/31/22 13/32/23 12/33/21

vt -3.04875 95.8579
vn -8.02269e-17 1 5.21475e-16
v 0.296639 2.72 -0.296639
vt -5.20455 60.3595
vn 0.626228 0.464409 -0.626228
vt -0.892959 60.3595
f 1/34/24 14/35/25 13/36/23

vt 3.04875 95.8579
vn -3.00851e-17 1 5.11446e-16
v 0.363307 2.72 -0.209755
vt 0.892959 60.3595
vn 0.76697 0.464409 -0.44281
vt 5.20455 60.3595
f 1/37/26 15/38/27 14/39/25

vt 8.93849 96.5859
vn 1.00284e-17 1 4.86376e-16
v 0.405216 2.72 -0.108577
vt 6.7827 61.0874
vn 0.855444 0.464409 -0.229215
vt 11.0943 61.0874
f 1/40/28 16/41/29 15/42/27

vt 14.2191 97.9922
vn -3.00851e-17 1 5.59081e-16
v 0.419511 2.72 8.1215e-16
vt 12.0633 62.4938
vn 0.885621 0.464409 1.27143e-15
vt 16.3749 62.4938
f 1/43/30 17/44/31 16/45/29

vt 18.5307 99.9811
vn -1.60454e-16 1 5.01418e-16
v 0.405216 2.72 0.108577
vt 16.3749 64.4826
vn 0.855444 0.464409 0.229215
vt 20.6865 64.4826
f 1/46/32 18/47/33 17/48/31

vt 21.5794 102.417
vn -4.01134e-17 1 4.9139e-16
v 0.363307 2.72 0.209755
vt 19.4236 66.9185
vn 0.76697 0.464409 0.44281
vt 23.7352 66.9185
f 1/49/34 19/50/35 18/51/33

vt 23.1576 105.134
vn -1.40397e-16 1 5.21475e-16
v 0.296639 2.72 0.296639
vt 21.0018 69.6354
vn 0.626228 0.464409 0.626228
vt 25.3134 69.6354
f 1/52/36 20/53/37 19/54/35

vt 23.1576 107.946
vn -1.40397e-16 1 5.5156e-16
v 0.209755 2.72 0.363307
vt 21.0018 72.448
vn 0.44281 0.464409 0.76697
vt 25.3134 72.448
f 1/55/38 21/56/39 20/57/37

vt 21.5794 110.663
vn -7.01985e-17 1 5.31503e-16
v 0.108577 2.72 0.405216
vt 19.4236 75.1649
vn 0.229215 0.464409 0.855444
vt 23.7352 75.1649
f 1/58/40 22/59/41 21/60/39

vt 18.5307 113.099
vn -2.04328e-16 1 6.51844e-16
v -9.02389e-17 2.72 0.419511
vt 16.3749 77.6007
vn -3.63267e-16 0.464409 0.885621
vt 20.6865 77.6007
f 1/61/42 23/62/43 22/63/41

vt 14.2191 115.088
vn -8.64946e-17 1 6.01702e-16
v -0.108577 2.72 0.405216
vt 12.0633 79.5896
vn -0.229215 0.464409 0.855444
vt 16.3749 79.5896
f 1/64/44 24/65/45 23/66/43

vt 8.93849 116.494
vn -1.40397e-16 1 7.22042e-16
v -0.209755 2.72 0.363307
vt 6.7827 80.996
vn -0.44281 0.464409 0.76697
vt 11.0943 80.996
f 1/67/46 25/68/47 24/69/45

vt 3.04875 117.222
vn -1.50425e-16 1 7.12014e-16
vt 0.892959 81.7239
vt 5.20455 81.7239
f 1/70/48 3/71/3 25/72/47

v -0.296639 0.47 0.296639
vt 0.892959 0
vn -0.707107 0 0.707107
v -0.209755 0.47 0.363307
vt 5.20455 0
vn -0.5 0 0.866025
vt 5.20455 88.5827
vt 0.892959 88.5827
f 26/73/49 27/74/50 25/75/50 3/76/49 

vt 6.7827 0
v -0.108577 0.47 0.405216
vt 11.0943 0
vn -0.258819 0 0.965926
vt 11.0943 88.5827
vt 6.7827 88.5827
f 27/77/50 28/78/51 24/79/51 25/80/50 

vt 12.0633 0
v -9.02389e-17 0.47 0.419511
vt 16.3749 0
vn -3.91931e-16 0 1
vt 16.3749 88.5827
vt 12.0633 88.5827
f 28/81/51 29/82/52 23/83/52 24/84/51 

v 0.108577 0.47 0.405216
vt 20.6865 0
vn 0.258819 0 0.965926
vt 20.6865 88.5827
f 29/82/52 30/85/53 22/86/53 23/83/52 

vt 19.4236 0
v 0.209755 0.47 0.363307
vt 23.7352 0
vn 0.5 0 0.866025
vt 23.7352 88.5827
vt 19.4236 88.5827
f 30/87/53 31/88/54 21/89/54 22/90/53 

vt 21.0018 0
v 0.296639 0.47 0.296639
vt 25.3134 0
vn 0.707107 0 0.707107
vt 25.3134 88.5827
vt 21.0018 88.5827
f 31/91/54 32/92/55 20/93/55 21/94/54 

v 0.363307 0.47 0.209755
vn 0.866025 0 0.5
f 32/91/55 33/92/56 19/93/56 20/94/55 

v 0.405216 0.47 0.108577
vn 0.965926 0 0.258819
f 33/87/56 34/88/57 18/89/57 19/90/56 

v 0.419511 0.47 8.1215e-16
vn 1 0 1.41375e-15
f 34/82/57 35/85/58 17/86/58 18/83/57 

v 0.405216 0.47 -0.108577
vn 0.965926 0 -0.258819
f 35/81/58 36/82/59 16/83/59 17/84/58 

v 0.363307 0.47 -0.209755
vn 0.866025 0 -0.5
f 36/77/59 37/78/60 15/79/60 16/80/59 

v 0.296639 0.47 -0.296639
vn 0.707107 0 -0.707107
f 37/73/60 38/74/61 14/75/61 15/76/60 

vt -5.20455 0
v 0.209755 0.47 -0.363307
vt -0.892959 0
vn 0.5 0 -0.866025
vt -0.892959 88.5827
vt -5.20455 88.5827
f 38/95/61 39/96/62 13/97/62 14/98/61 

vt -11.0943 0
v 0.108577 0.47 -0.405216
vt -6.7827 0
vn 0.258819 0 -0.965926
vt -6.7827 88.5827
vt -11.0943 88.5827
f 39/99/62 40/100/63 12/101/63 13/102/62 

vt -16.3749 0
v 9.02389e-17 0.47 -0.419511
vt -12.0633 0
vn 6.01894e-16 0 -1
vt -12.0633 88.5827
vt -16.3749 88.5827
f 40/103/63 41/104/64 11/105/64 12/106/63 

vt -20.6865 0
v -0.108577 0.47 -0.405216
vn -0.258819 0 -0.965926
vt -20.6865 88.5827
f 41/107/64 42/103/65 10/106/65 11/108/64 

vt -23.7352 0
v -0.209755 0.47 -0.363307
vt -19.4236 0
vn -0.5 0 -0.866025
vt -19.4236 88.5827
vt -23.7352 88.5827
f 42/109/65 43/110/66 9/111/66 10/112/65 

vt -25.3134 0
v -0.296639 0.47 -0.296639
vt -21.0018 0
vn -0.707107 0 -0.707107
vt -21.0018 88.5827
vt -25.3134 88.5827
f 43/113/66 44/114/67 8/115/67 9/116/66 

v -0.363307 0.47 -0.209755
vn -0.866025 0 -0.5
f 44/113/67 45/114/68 7/115/68 8/116/67 

v -0.405216 0.47 -0.108577
vn -0.965926 0 -0.258819
f 45/109/68 46/110/69 6/111/69 7/112/68 

v -0.419511 0.47 9.02389e-17
vn -1 0 1.95966e-16
f 46/107/69 47/103/70 5/106/70 6/108/69 

v -0.405216 0.47 0.108577
vn -0.965926 0 0.258819
f 47/103/70 48/104/71 4/105/71 5/106/70 

v -0.363307 0.47 0.209755
vn -0.866025 0 0.5
f 48/99/71 49/100/72 2/101/72 4/102/71 

f 49/95/72 26/96/49 3/97/49 2/98/72 

